<?xml version="1.0" encoding="UTF-8" standalone="no"?>
<!DOCTYPE svg PUBLIC "-//W3C//DTD SVG 1.1//EN" "http://www.w3.org/Graphics/SVG/1.1/DTD/svg11.dtd">
<svg width="100%" height="100%" viewBox="0 0 600 220" version="1.1" xmlns="http://www.w3.org/2000/svg" xmlns:xlink="http://www.w3.org/1999/xlink" xml:space="preserve" xmlns:serif="http://www.serif.com/" style="fill-rule:evenodd;clip-rule:evenodd;">
    <g transform="matrix(0.8,0,0,1,0,0)">
        <rect x="0" y="0" width="750" height="220" style="fill:rgb(247,247,247);"/>
    </g>
    <g transform="matrix(0.854061,0,0,1,-22.1624,-17)">
        <path d="M40,110L710,110" style="fill:none;fill-rule:nonzero;stroke:rgb(44,127,184);stroke-width:1.5px;stroke-dasharray:4,2;"/>
    </g>
    <g transform="matrix(1,0,0,1,-28,-17)">
        <rect x="50" y="95" width="12" height="15" style="fill:rgb(69,117,180);"/>
    </g>
    <g transform="matrix(1,0,0,1,-28,-17)">
        <rect x="50" y="110" width="12" height="10" style="fill:rgb(145,191,219);"/>
    </g>
    <g transform="matrix(1,0,0,1,-28,-17)">
        <rect x="68" y="90" width="12" height="20" style="fill:rgb(69,117,180);"/>
    </g>
    <g transform="matrix(1,0,0,1,-28,-17)">
        <rect x="68" y="110" width="12" height="15" style="fill:rgb(145,191,219);"/>
    </g>
    <g transform="matrix(1,0,0,1,-28,-17)">
        <rect x="86" y="87" width="12" height="23" style="fill:rgb(69,117,180);"/>
    </g>
    <g transform="matrix(1,0,0,1,-28,-17)">
        <rect x="86" y="110" width="12" height="18" style="fill:rgb(145,191,219);"/>
    </g>
    <g transform="matrix(1,0,0,1,-28,-17)">
        <rect x="104" y="80" width="12" height="30" style="fill:rgb(69,117,180);"/>
    </g>
    <g transform="matrix(1,0,0,1,-28,-17)">
        <rect x="104" y="110" width="12" height="22" style="fill:rgb(145,191,219);"/>
    </g>
    <g transform="matrix(1,0,0,1,-28,-17)">
        <rect x="122" y="85" width="12" height="25" style="fill:rgb(69,117,180);"/>
    </g>
    <g transform="matrix(1,0,0,1,-28,-17)">
        <rect x="122" y="110" width="12" height="25" style="fill:rgb(145,191,219);"/>
    </g>
    <g transform="matrix(1,0,0,1,-28,-17)">
        <rect x="140" y="90" width="12" height="20" style="fill:rgb(69,117,180);"/>
    </g>
    <g transform="matrix(1,0,0,1,-28,-17)">
        <rect x="140" y="110" width="12" height="30" style="fill:rgb(145,191,219);"/>
    </g>
    <g transform="matrix(1,0,0,1,-28,-17)">
        <rect x="158" y="75" width="12" height="35" style="fill:rgb(69,117,180);"/>
    </g>
    <g transform="matrix(1,0,0,1,-28,-17)">
        <rect x="158" y="110" width="12" height="35" style="fill:rgb(145,191,219);"/>
    </g>
    <g transform="matrix(1,0,0,1,-28,-17)">
        <rect x="176" y="82" width="12" height="28" style="fill:rgb(69,117,180);"/>
    </g>
    <g transform="matrix(1,0,0,1,-28,-17)">
        <rect x="176" y="110" width="12" height="40" style="fill:rgb(145,191,219);"/>
    </g>
    <g transform="matrix(1,0,0,1,-28,-17)">
        <rect x="194" y="85" width="12" height="25" style="fill:rgb(69,117,180);"/>
    </g>
    <g transform="matrix(1,0,0,1,-28,-17)">
        <rect x="194" y="110" width="12" height="45" style="fill:rgb(145,191,219);"/>
    </g>
    <g transform="matrix(1,0,0,1,-28,-17)">
        <rect x="212" y="90" width="12" height="20" style="fill:rgb(69,117,180);"/>
    </g>
    <g transform="matrix(1,0,0,1,-28,-17)">
        <rect x="212" y="110" width="12" height="50" style="fill:rgb(145,191,219);"/>
    </g>
    <g transform="matrix(1,0,0,1,-28,-17)">
        <rect x="230" y="70" width="12" height="40" style="fill:rgb(69,117,180);"/>
    </g>
    <g transform="matrix(1,0,0,1,-28,-17)">
        <rect x="230" y="110" width="12" height="55" style="fill:rgb(145,191,219);"/>
    </g>
    <g transform="matrix(1,0,0,1,-28,-17)">
        <rect x="248" y="75" width="12" height="35" style="fill:rgb(69,117,180);"/>
    </g>
    <g transform="matrix(1,0,0,1,-28,-17)">
        <rect x="248" y="110" width="12" height="60" style="fill:rgb(145,191,219);"/>
    </g>
    <g transform="matrix(1,0,0,1,-28,-17)">
        <rect x="266" y="65" width="12" height="45" style="fill:rgb(69,117,180);"/>
    </g>
    <g transform="matrix(1,0,0,1,-28,-17)">
        <rect x="266" y="110" width="12" height="70" style="fill:rgb(145,191,219);"/>
    </g>
    <g transform="matrix(1,0,0,1,-28,-17)">
        <rect x="284" y="80" width="12" height="30" style="fill:rgb(69,117,180);"/>
    </g>
    <g transform="matrix(1,0,0,1,-28,-17)">
        <rect x="284" y="110" width="12" height="75" style="fill:rgb(145,191,219);"/>
    </g>
    <g transform="matrix(1,0,0,1,-28,-17)">
        <rect x="302" y="85" width="12" height="25" style="fill:rgb(69,117,180);"/>
    </g>
    <g transform="matrix(1,0,0,1,-28,-17)">
        <rect x="302" y="110" width="12" height="80" style="fill:rgb(145,191,219);"/>
    </g>
    <g transform="matrix(1,0,0,1,-28,-17)">
        <rect x="320" y="90" width="12" height="20" style="fill:rgb(69,117,180);"/>
    </g>
    <g transform="matrix(1,0,0,1,-28,-17)">
        <rect x="320" y="110" width="12" height="85" style="fill:rgb(145,191,219);"/>
    </g>
    <g transform="matrix(1,0,0,1,-28,-17)">
        <rect x="338" y="85" width="12" height="25" style="fill:rgb(69,117,180);"/>
    </g>
    <g transform="matrix(1,0,0,1,-28,-17)">
        <rect x="338" y="110" width="12" height="80" style="fill:rgb(145,191,219);"/>
    </g>
    <g transform="matrix(1,0,0,1,-28,-17)">
        <rect x="356" y="70" width="12" height="40" style="fill:rgb(69,117,180);"/>
    </g>
    <g transform="matrix(1,0,0,1,-28,-17)">
        <rect x="356" y="110" width="12" height="75" style="fill:rgb(145,191,219);"/>
    </g>
    <g transform="matrix(1,0,0,1,-28,-17)">
        <rect x="374" y="65" width="12" height="45" style="fill:rgb(69,117,180);"/>
    </g>
    <g transform="matrix(1,0,0,1,-28,-17)">
        <rect x="374" y="110" width="12" height="70" style="fill:rgb(145,191,219);"/>
    </g>
    <g transform="matrix(1,0,0,1,-28,-17)">
        <rect x="392" y="75" width="12" height="35" style="fill:rgb(69,117,180);"/>
    </g>
    <g transform="matrix(1,0,0,1,-28,-17)">
        <rect x="392" y="110" width="12" height="60" style="fill:rgb(145,191,219);"/>
    </g>
    <g transform="matrix(1,0,0,1,-28,-17)">
        <rect x="410" y="80" width="12" height="30" style="fill:rgb(69,117,180);"/>
    </g>
    <g transform="matrix(1,0,0,1,-28,-17)">
        <rect x="410" y="110" width="12" height="55" style="fill:rgb(145,191,219);"/>
    </g>
    <g transform="matrix(1,0,0,1,-28,-17)">
        <rect x="428" y="70" width="12" height="40" style="fill:rgb(69,117,180);"/>
    </g>
    <g transform="matrix(1,0,0,1,-28,-17)">
        <rect x="428" y="110" width="12" height="50" style="fill:rgb(145,191,219);"/>
    </g>
    <g transform="matrix(1,0,0,1,-28,-17)">
        <rect x="446" y="85" width="12" height="25" style="fill:rgb(69,117,180);"/>
    </g>
    <g transform="matrix(1,0,0,1,-28,-17)">
        <rect x="446" y="110" width="12" height="45" style="fill:rgb(145,191,219);"/>
    </g>
    <g transform="matrix(1,0,0,1,-28,-17)">
        <rect x="464" y="80" width="12" height="30" style="fill:rgb(69,117,180);"/>
    </g>
    <g transform="matrix(1,0,0,1,-28,-17)">
        <rect x="464" y="110" width="12" height="40" style="fill:rgb(145,191,219);"/>
    </g>
    <g transform="matrix(1,0,0,1,-28,-17)">
        <rect x="482" y="90" width="12" height="20" style="fill:rgb(69,117,180);"/>
    </g>
    <g transform="matrix(1,0,0,1,-28,-17)">
        <rect x="482" y="110" width="12" height="35" style="fill:rgb(145,191,219);"/>
    </g>
    <g transform="matrix(1,0,0,1,-28,-17)">
        <rect x="500" y="75" width="12" height="35" style="fill:rgb(69,117,180);"/>
    </g>
    <g transform="matrix(1,0,0,1,-28,-17)">
        <rect x="500" y="110" width="12" height="30" style="fill:rgb(145,191,219);"/>
    </g>
    <g transform="matrix(1,0,0,1,-28,-17)">
        <rect x="518" y="85" width="12" height="25" style="fill:rgb(69,117,180);"/>
    </g>
    <g transform="matrix(1,0,0,1,-28,-17)">
        <rect x="518" y="110" width="12" height="25" style="fill:rgb(145,191,219);"/>
    </g>
    <g transform="matrix(1,0,0,1,-28,-17)">
        <rect x="536" y="80" width="12" height="30" style="fill:rgb(69,117,180);"/>
    </g>
    <g transform="matrix(1,0,0,1,-28,-17)">
        <rect x="536" y="110" width="12" height="22" style="fill:rgb(145,191,219);"/>
    </g>
    <g transform="matrix(1,0,0,1,-28,-17)">
        <rect x="554" y="87" width="12" height="23" style="fill:rgb(69,117,180);"/>
    </g>
    <g transform="matrix(1,0,0,1,-28,-17)">
        <rect x="554" y="110" width="12" height="18" style="fill:rgb(145,191,219);"/>
    </g>
    <g transform="matrix(1,0,0,1,-28,-17)">
        <rect x="572" y="90" width="12" height="20" style="fill:rgb(69,117,180);"/>
    </g>
    <g transform="matrix(1,0,0,1,-28,-17)">
        <rect x="572" y="110" width="12" height="15" style="fill:rgb(145,191,219);"/>
    </g>
    <g transform="matrix(1,0,0,1,-28,-17)">
        <rect x="590" y="95" width="12" height="15" style="fill:rgb(69,117,180);"/>
    </g>
    <g transform="matrix(1,0,0,1,-28,-17)">
        <rect x="590" y="110" width="12" height="10" style="fill:rgb(145,191,219);"/>
    </g>
    <g transform="matrix(1,0,0,1,257.464,22.6045)">
        <text x="0px" y="0px" style="font-family:'Arial-BoldMT', 'Arial', sans-serif;font-weight:700;font-size:12px;">Current therapy</text>
    </g>
    <g transform="matrix(1,0,0,1,264.976,204.799)">
        <text x="0px" y="0px" style="font-family:'Arial-BoldMT', 'Arial', sans-serif;font-weight:700;font-size:12px;">Prior therapy</text>
    </g>
</svg>
